HIERARCHY
ROOT Hips
{
	OFFSET 0.000000 0.000000 0.000000
	CHANNELS 6 Xposition Yposition Zposition Zrotation Yrotation Xrotation 
	JOINT LHipJoint
	{
		OFFSET 0.000000 0.000000 0.000000
		CHANNELS 3 Zrotation Yrotation Xrotation
		JOINT LeftUpLeg
		{
			OFFSET 8.178360 -10.767780 5.035740
			CHANNELS 3 Zrotation Yrotation Xrotation
			JOINT LeftLeg
			{
				OFFSET 14.688660 -40.356780 0.000000
				CHANNELS 3 Zrotation Yrotation Xrotation
				JOINT LeftFoot
				{
					OFFSET 15.373200 -42.237540 0.000000
					CHANNELS 3 Zrotation Yrotation Xrotation
					JOINT LeftToeBase
					{
						OFFSET 0.945840 -2.598660 13.935300
						CHANNELS 3 Zrotation Yrotation Xrotation
						End Site
						{
							OFFSET 0.000000 0.000000 0.000000
						}
					}
				}
			}
		}
	}
	JOINT RHipJoint
	{
		OFFSET 0.000000 0.000000 0.000000
		CHANNELS 3 Zrotation Yrotation Xrotation
		JOINT RightUpLeg
		{
			OFFSET -7.833120 -10.767780 5.035740
			CHANNELS 3 Zrotation Yrotation Xrotation
			JOINT RightLeg
			{
				OFFSET -15.255180 -41.913300 0.000000
				CHANNELS 3 Zrotation Yrotation Xrotation
				JOINT RightFoot
				{
					OFFSET -15.409560 -42.337380 0.000000
					CHANNELS 3 Zrotation Yrotation Xrotation
					JOINT RightToeBase
					{
						OFFSET -0.988380 -2.715540 14.178900
						CHANNELS 3 Zrotation Yrotation Xrotation
						End Site
						{
							OFFSET 0.000000 0.000000 0.000000
						}
					}
				}
			}
		}
	}
	JOINT LowerBack
	{
		OFFSET 0.000000 0.000000 0.000000
		CHANNELS 3 Zrotation Yrotation Xrotation
		JOINT Spine
		{
			OFFSET 0.169620 12.213540 -1.160280
			CHANNELS 3 Zrotation Yrotation Xrotation
			JOINT Spine1
			{
				OFFSET 0.340320 12.293100 -0.256500
				CHANNELS 3 Zrotation Yrotation Xrotation
				JOINT Neck
				{
					OFFSET 0.000000 0.000000 0.000000
					CHANNELS 3 Zrotation Yrotation Xrotation
					JOINT Neck1
					{
						OFFSET -0.325020 10.477440 1.032120
						CHANNELS 3 Zrotation Yrotation Xrotation
						JOINT Head
						{
							OFFSET 0.624420 10.568160 -0.743820
							CHANNELS 3 Zrotation Yrotation Xrotation
							End Site
							{
								OFFSET 0.000000 0.000000 0.000000
							}
						}
					}
				}
				JOINT LeftShoulder
				{
					OFFSET 0.000000 0.000000 0.000000
					CHANNELS 3 Zrotation Yrotation Xrotation
					JOINT LeftArm
					{
						OFFSET 20.174460 7.205340 -1.867260
						CHANNELS 3 Zrotation Yrotation Xrotation
						JOINT LeftForeArm
						{
							OFFSET 29.898000 -0.000000 -0.000000
							CHANNELS 3 Zrotation Yrotation Xrotation
							JOINT LeftHand
							{
								OFFSET 20.901360 -0.000000 -0.000000
								CHANNELS 3 Zrotation Yrotation Xrotation
								JOINT LeftFingerBase
								{
									OFFSET 0.000000 0.000000 0.000000
									CHANNELS 3 Zrotation Yrotation Xrotation
									JOINT LeftHandIndex1
									{
										OFFSET 4.291560 -0.000000 -0.000000
										CHANNELS 3 Zrotation Yrotation Xrotation
										End Site
										{
											OFFSET 0.000000 0.000000 0.000000
										}
									}
								}
								JOINT LThumb
								{
									OFFSET 0.000000 0.000000 0.000000
									CHANNELS 3 Zrotation Yrotation Xrotation
									End Site
									{
										OFFSET 0.000000 0.000000 0.000000
									}
								}
							}
						}
					}
				}
				JOINT RightShoulder
				{
					OFFSET 0.000000 0.000000 0.000000
					CHANNELS 3 Zrotation Yrotation Xrotation
					JOINT RightArm
					{
						OFFSET -18.819600 8.244300 -2.427900
						CHANNELS 3 Zrotation Yrotation Xrotation
						JOINT RightForeArm
						{
							OFFSET -31.451400 -0.000000 -0.000000
							CHANNELS 3 Zrotation Yrotation Xrotation
							JOINT RightHand
							{
								OFFSET -20.665020 -0.000000 -0.000000
								CHANNELS 3 Zrotation Yrotation Xrotation
								JOINT RightFingerBase
								{
									OFFSET 0.000000 0.000000 0.000000
									CHANNELS 3 Zrotation Yrotation Xrotation
									JOINT RightHandIndex1
									{
										OFFSET -3.735180 -0.000000 -0.000000
										CHANNELS 3 Zrotation Yrotation Xrotation
										End Site
										{
											OFFSET 0.000000 0.000000 0.000000
										}
									}
								}
								JOINT RThumb
								{
									OFFSET 0.000000 0.000000 0.000000
									CHANNELS 3 Zrotation Yrotation Xrotation
									End Site
									{
										OFFSET 0.000000 0.000000 0.000000
									}
								}
							}
						}
					}
				}
			}
		}
	}
}
MOTION
Frames:	7
Frame Time:	0.0333333
-54.445326 107.872134 6.535344 0.767849 5.063326 2.251645 -1.111847 1.525164 2.029958 -24.296045 -7.889975 -6.746038 0.198464 7.469896 23.830208 3.052758 -11.280597 4.307963 0.500500 4.535300 12.587700 -0.900108 -1.532949 0.515227 10.209861 18.125520 -23.544674 -0.694213 -8.408196 23.889054 -1.249145 2.650568 7.550692 -0.950300 6.208100 -17.389500 -2.701204 -0.508175 5.588225 1.033934 -1.092948 -1.857656 5.006488 -0.307034 -2.345487 -7.674425 -3.101965 -13.405210 3.681077 -3.008414 14.167682 2.717900 -1.882800 10.478400 -7.234187 2.221548 -2.426667 -82.833637 -3.985342 29.243928 14.417035 -25.841313 -4.534453 -1.197108 -3.647765 3.970234 16.989555 23.020658 8.315400 -7.125000 0.000000 0.000000 -13.442000 57.406500 -4.134400 5.957457 -1.667338 -2.257390 81.738436 1.888186 13.744424 -15.039208 22.565529 -4.247181 0.795975 -0.010664 5.868869 -11.413139 6.805085 -1.448900 7.125000 0.000000 0.000000 10.676000 -23.136400 5.719100 
-54.303714 107.715060 9.261288 0.437473 7.046750 2.298665 -1.091764 1.605839 2.084625 -23.949615 -8.517377 -5.239888 0.322526 7.630526 24.399663 3.251630 -12.375002 3.742952 0.436700 4.240400 11.753900 -0.747744 -1.517175 0.483159 9.122754 19.905881 -22.476070 0.174419 -6.606288 18.998330 -2.725500 10.697521 10.254660 -1.213300 6.987500 -19.678300 -2.209609 -0.413047 5.450969 0.999239 -0.907557 -1.711047 4.633785 -0.246954 -1.956034 -7.577696 -3.479618 -13.006002 3.580338 -3.572788 13.819284 2.609100 -2.129900 10.215900 -7.150283 2.238146 -2.414346 -82.850828 -4.223879 30.457071 15.229155 -26.955260 -4.991481 -0.986840 -3.900887 4.321868 15.669470 25.942544 8.365800 -7.125000 0.000000 0.000000 -17.118300 60.143700 -6.436600 5.899054 -1.705032 -2.199546 81.973991 1.981331 12.711787 -15.088490 22.689355 -4.290610 0.773468 -0.129250 7.150751 -11.433098 7.656332 -1.654900 7.125000 0.000000 0.000000 10.612100 -22.178000 5.920700 
-54.264750 107.654454 11.963736 0.356501 10.462406 2.048624 -1.010114 1.699405 2.114310 -23.813245 -9.831157 -3.380891 0.486119 7.868475 25.253083 3.435953 -13.807118 3.930664 0.349800 3.800300 10.515500 -0.696727 -1.502070 0.535899 8.924278 18.827078 -21.912316 0.400545 -6.369815 18.632113 -3.163513 13.348858 17.572457 -0.293900 3.485900 -9.634500 -1.893117 -0.590972 5.957621 0.944137 -1.102421 -1.644026 4.315189 -0.366353 -1.993604 -7.790089 -3.666990 -13.276396 3.835964 -3.785821 14.222373 2.764800 -2.223200 10.538300 -7.154441 2.225944 -2.435307 -83.149439 -4.547066 31.202481 15.775755 -27.648379 -5.363052 -1.294446 -3.458515 4.116089 18.140176 21.433572 8.386800 -7.125000 0.000000 0.000000 -11.228500 55.909500 -3.032600 5.885932 -1.685840 -2.175239 82.204580 1.973687 11.687669 -14.767173 22.236673 -4.111203 0.770724 -0.179968 8.383472 -11.534354 7.699064 -1.686300 7.125000 0.000000 0.000000 10.531000 -22.097300 5.893700 
-54.293202 107.528922 14.819550 0.990608 14.365645 2.179726 -0.868386 1.749434 2.110497 -24.310372 -11.083675 -2.336532 0.804820 8.399188 27.027644 3.536611 -15.498513 5.118257 0.344400 3.771100 10.433500 -0.746037 -1.554880 0.634651 8.254885 18.561389 -21.061847 0.149675 -7.108311 20.864238 -3.245475 13.227579 20.359812 -0.015800 0.810700 -2.228200 -2.551373 -0.675137 6.400438 0.895905 -1.284647 -1.865516 4.505754 -0.407118 -2.975583 -7.706411 -3.388279 -12.597114 3.746688 -3.462710 14.781721 2.722900 -2.099900 10.666700 -7.116130 2.286020 -2.521628 -83.854668 -3.301184 31.759949 16.420510 -28.461427 -5.749222 -0.999853 -3.722377 1.981039 17.008187 23.690400 8.491100 -7.125000 0.000000 0.000000 -13.897400 58.093800 -4.509300 5.871411 -1.750504 -2.250816 82.198826 0.441214 11.282412 -14.561011 21.984302 -3.998339 0.838572 -0.237159 8.345286 -12.085320 8.105668 -1.877300 7.125000 0.000000 0.000000 10.056800 -21.620700 5.730600 
-54.460170 107.497380 17.878200 1.011673 19.069682 2.418960 -0.676112 1.775534 2.026829 -23.772076 -12.197608 -2.387002 1.363676 9.345626 30.060318 3.530996 -16.830567 6.917865 0.216600 2.996200 8.268100 -0.788235 -1.686567 0.734514 8.893785 18.423717 -18.956846 -0.112394 -7.555221 22.370183 -3.187428 14.254463 18.141050 -0.106400 -2.103700 5.792400 -2.778200 -0.887574 5.721512 0.926570 -1.584947 -1.862931 4.775541 -0.555400 -2.641375 -8.497861 -3.357543 -12.372930 3.978154 -3.235475 15.206082 3.048100 -2.061800 10.810500 -7.120772 2.439376 -2.553700 -84.356252 -2.651876 32.291249 16.657936 -28.817434 -5.943603 -1.021814 -3.578561 1.658973 17.255171 22.067102 8.126000 -7.125000 0.000000 0.000000 -12.623200 56.404300 -3.569700 5.843176 -1.836464 -2.262129 82.301124 -0.208545 11.302431 -14.375539 21.780641 -3.895963 0.958479 -0.332390 7.480860 -12.998063 9.010858 -2.277600 7.125000 0.000000 0.000000 9.270000 -20.573800 5.492400 
-54.523866 107.617968 20.925714 -0.074791 23.599126 2.283012 -0.455939 1.758577 1.888559 -21.856676 -12.747857 -4.039580 2.303164 10.785737 34.723953 3.402818 -17.425367 9.538384 0.103000 2.069600 5.697900 -0.759522 -1.873437 0.814867 11.258347 17.311214 -16.111129 -0.172880 -7.191314 21.377137 -2.417601 8.789769 12.026817 -0.044700 1.364300 -3.751700 -1.844466 -0.607526 4.871356 1.096332 -1.149478 -1.717039 4.773205 -0.327550 -2.038383 -8.256008 -3.400983 -10.986866 2.843363 -3.334156 14.073832 2.468000 -2.171600 9.758700 -7.015248 2.553894 -2.463126 -84.835036 -2.449178 34.103663 16.715865 -28.955114 -6.019524 -1.093484 -3.451801 2.303245 17.534000 20.856468 7.879700 -7.125000 0.000000 0.000000 -11.656800 55.146300 -2.933400 5.889256 -1.994160 -2.214896 82.179409 -0.711218 10.714991 -14.400374 21.918213 -3.916292 1.050486 -0.399873 6.705187 -13.685980 9.838122 -2.641700 7.125000 0.000000 0.000000 8.687400 -19.627600 5.325500 
-54.459552 107.993346 23.796372 -1.685902 28.392510 1.166481 -0.132597 1.733332 1.790142 -19.452932 -12.792578 -6.677328 3.589230 12.444910 40.489226 3.124401 -16.808167 14.283996 0.009600 0.631600 1.735700 -0.719583 -2.042025 1.031171 14.090991 15.746415 -13.118301 -0.187716 -6.895190 20.848351 -1.791298 5.507356 10.685209 -0.001800 0.270800 -0.744100 0.237247 -0.403186 5.922146 0.966529 -0.741970 -2.121482 3.246540 -0.035703 -4.045477 -7.656903 -3.574294 -9.930887 2.711271 -3.780351 15.125417 2.314100 -2.389600 10.190400 -7.117533 2.650455 -2.618011 -83.679814 0.137871 34.867331 16.370817 -28.556438 -5.806991 -1.083103 -3.501493 1.855040 17.615597 21.050620 7.994600 -7.125000 0.000000 0.000000 -11.665300 55.401600 -3.008300 5.832561 -2.049638 -2.355454 83.264393 -3.527871 10.824486 -14.286686 21.798842 -3.890086 0.938423 -0.136186 6.511902 -12.448850 7.655256 -1.817800 7.125000 0.000000 0.000000 9.759400 -22.147200 5.437500 
